<mxfile host="app.diagrams.net" modified="2023-04-03T14:05:07.166Z" agent="Mozilla/5.0 (Macintosh; Intel Mac OS X 10_15_7) AppleWebKit/605.1.15 (KHTML, like Gecko) Version/16.3 Safari/605.1.15" etag="Znc5Qo6smeDEqakcnzGT" version="21.1.0" type="github">
  <diagram name="Page-1" id="16e2658f-23c8-b752-8be9-c03fbebb8bbe">
    <mxGraphModel dx="717" dy="370" grid="1" gridSize="10" guides="1" tooltips="1" connect="1" arrows="1" fold="1" page="1" pageScale="1" pageWidth="1100" pageHeight="850" background="none" math="0" shadow="0">
      <root>
        <mxCell id="0" />
        <mxCell id="1" parent="0" />
        <mxCell id="PRDcVe-QQQWy-9RgeYIL-1" value="" style="verticalLabelPosition=bottom;shadow=0;dashed=0;align=center;html=1;verticalAlign=top;shape=mxgraph.electrical.logic_gates.rs_latch;strokeWidth=2;" vertex="1" parent="1">
          <mxGeometry x="560" y="130" width="100" height="80" as="geometry" />
        </mxCell>
        <mxCell id="PRDcVe-QQQWy-9RgeYIL-2" value="&lt;font style=&quot;font-size: 15px;&quot;&gt;1/20&lt;/font&gt;" style="triangle;whiteSpace=wrap;html=1;align=left;labelPosition=center;verticalLabelPosition=middle;verticalAlign=middle;strokeWidth=2;" vertex="1" parent="1">
          <mxGeometry x="200" y="80" width="40" height="60" as="geometry" />
        </mxCell>
        <mxCell id="PRDcVe-QQQWy-9RgeYIL-3" value="&lt;font style=&quot;font-size: 25px;&quot;&gt;&amp;gt;&lt;/font&gt;" style="whiteSpace=wrap;html=1;aspect=fixed;strokeWidth=2;" vertex="1" parent="1">
          <mxGeometry x="440" y="120" width="40" height="40" as="geometry" />
        </mxCell>
        <mxCell id="PRDcVe-QQQWy-9RgeYIL-4" value="&lt;font style=&quot;font-size: 25px;&quot;&gt;&amp;gt;&lt;/font&gt;" style="whiteSpace=wrap;html=1;aspect=fixed;strokeWidth=2;" vertex="1" parent="1">
          <mxGeometry x="440" y="180" width="40" height="40" as="geometry" />
        </mxCell>
        <mxCell id="PRDcVe-QQQWy-9RgeYIL-5" value="&lt;font style=&quot;font-size: 16px;&quot;&gt;-1&lt;/font&gt;" style="triangle;whiteSpace=wrap;html=1;strokeWidth=2;" vertex="1" parent="1">
          <mxGeometry x="345" y="168.5" width="36" height="43" as="geometry" />
        </mxCell>
        <mxCell id="PRDcVe-QQQWy-9RgeYIL-6" value="&lt;font&gt;&lt;span style=&quot;font-size: 15px;&quot;&gt;T&lt;/span&gt;&lt;sub&gt;&lt;font style=&quot;font-size: 12px;&quot;&gt;1&amp;nbsp;&lt;/font&gt;&lt;/sub&gt;&lt;span style=&quot;font-size: 15px;&quot;&gt;&amp;amp; T&lt;sub style=&quot;font-size: 12px;&quot;&gt;4&lt;/sub&gt;&lt;/span&gt;&lt;/font&gt;&lt;font style=&quot;vertical-align: sub; font-size: 12px;&quot;&gt;&amp;nbsp;&lt;/font&gt;" style="text;html=1;strokeColor=none;fillColor=none;align=center;verticalAlign=middle;whiteSpace=wrap;rounded=0;strokeWidth=2;" vertex="1" parent="1">
          <mxGeometry x="840" y="120" width="60" height="30" as="geometry" />
        </mxCell>
        <mxCell id="PRDcVe-QQQWy-9RgeYIL-9" value="" style="endArrow=classic;html=1;rounded=0;exitX=1;exitY=0.75;exitDx=0;exitDy=0;exitPerimeter=0;strokeWidth=2;" edge="1" parent="1" source="PRDcVe-QQQWy-9RgeYIL-1">
          <mxGeometry width="50" height="50" relative="1" as="geometry">
            <mxPoint x="470" y="-40" as="sourcePoint" />
            <mxPoint x="720" y="190" as="targetPoint" />
          </mxGeometry>
        </mxCell>
        <mxCell id="PRDcVe-QQQWy-9RgeYIL-10" value="" style="endArrow=classic;html=1;rounded=0;entryX=0;entryY=0.75;entryDx=0;entryDy=0;entryPerimeter=0;exitX=1;exitY=0.5;exitDx=0;exitDy=0;strokeWidth=2;" edge="1" parent="1" source="PRDcVe-QQQWy-9RgeYIL-4" target="PRDcVe-QQQWy-9RgeYIL-1">
          <mxGeometry width="50" height="50" relative="1" as="geometry">
            <mxPoint x="470" y="-40" as="sourcePoint" />
            <mxPoint x="520" y="-90" as="targetPoint" />
            <Array as="points">
              <mxPoint x="520" y="200" />
              <mxPoint x="520" y="190" />
            </Array>
          </mxGeometry>
        </mxCell>
        <mxCell id="PRDcVe-QQQWy-9RgeYIL-11" value="" style="endArrow=classic;html=1;rounded=0;exitX=1;exitY=0.5;exitDx=0;exitDy=0;strokeWidth=2;" edge="1" parent="1" source="PRDcVe-QQQWy-9RgeYIL-3">
          <mxGeometry width="50" height="50" relative="1" as="geometry">
            <mxPoint x="470" y="-40" as="sourcePoint" />
            <mxPoint x="560" y="150" as="targetPoint" />
            <Array as="points">
              <mxPoint x="520" y="140" />
              <mxPoint x="520" y="150" />
            </Array>
          </mxGeometry>
        </mxCell>
        <mxCell id="PRDcVe-QQQWy-9RgeYIL-12" value="" style="endArrow=classic;html=1;rounded=0;entryX=0;entryY=0.25;entryDx=0;entryDy=0;exitX=1;exitY=0.5;exitDx=0;exitDy=0;strokeWidth=2;" edge="1" parent="1" source="PRDcVe-QQQWy-9RgeYIL-5" target="PRDcVe-QQQWy-9RgeYIL-4">
          <mxGeometry width="50" height="50" relative="1" as="geometry">
            <mxPoint x="470" y="-40" as="sourcePoint" />
            <mxPoint x="520" y="-90" as="targetPoint" />
          </mxGeometry>
        </mxCell>
        <mxCell id="PRDcVe-QQQWy-9RgeYIL-13" value="&lt;p style=&quot;line-height: 140%;&quot;&gt;&lt;font style=&quot;font-size: 28px;&quot;&gt;+&lt;/font&gt;&lt;/p&gt;" style="ellipse;whiteSpace=wrap;html=1;aspect=fixed;align=center;strokeWidth=2;" vertex="1" parent="1">
          <mxGeometry x="216" y="153" width="35" height="35" as="geometry" />
        </mxCell>
        <mxCell id="PRDcVe-QQQWy-9RgeYIL-14" value="" style="endArrow=classic;html=1;rounded=0;entryX=0;entryY=0.5;entryDx=0;entryDy=0;strokeWidth=2;" edge="1" parent="1">
          <mxGeometry width="50" height="50" relative="1" as="geometry">
            <mxPoint x="160" y="170" as="sourcePoint" />
            <mxPoint x="200" y="110" as="targetPoint" />
            <Array as="points">
              <mxPoint x="160" y="110" />
            </Array>
          </mxGeometry>
        </mxCell>
        <mxCell id="PRDcVe-QQQWy-9RgeYIL-15" value="" style="endArrow=classic;html=1;rounded=0;exitDx=0;exitDy=0;entryX=0;entryY=0.75;entryDx=0;entryDy=0;startArrow=none;strokeWidth=2;" edge="1" parent="1" source="PRDcVe-QQQWy-9RgeYIL-17" target="PRDcVe-QQQWy-9RgeYIL-3">
          <mxGeometry width="50" height="50" relative="1" as="geometry">
            <mxPoint x="470" y="30" as="sourcePoint" />
            <mxPoint x="520" y="-20" as="targetPoint" />
            <Array as="points">
              <mxPoint x="400" y="110" />
              <mxPoint x="400" y="150" />
            </Array>
          </mxGeometry>
        </mxCell>
        <mxCell id="PRDcVe-QQQWy-9RgeYIL-16" value="" style="endArrow=none;html=1;rounded=0;exitX=1;exitY=0.5;exitDx=0;exitDy=0;strokeWidth=2;" edge="1" parent="1">
          <mxGeometry width="50" height="50" relative="1" as="geometry">
            <mxPoint x="240" y="110" as="sourcePoint" />
            <mxPoint x="400" y="110" as="targetPoint" />
            <Array as="points" />
          </mxGeometry>
        </mxCell>
        <mxCell id="PRDcVe-QQQWy-9RgeYIL-17" value="" style="shape=waypoint;sketch=0;fillStyle=solid;size=6;pointerEvents=1;points=[];fillColor=none;resizable=0;rotatable=0;perimeter=centerPerimeter;snapToPoint=1;strokeWidth=2;" vertex="1" parent="1">
          <mxGeometry x="390" y="140" width="20" height="20" as="geometry" />
        </mxCell>
        <mxCell id="PRDcVe-QQQWy-9RgeYIL-18" value="" style="endArrow=classic;html=1;rounded=0;entryX=0;entryY=0.75;entryDx=0;entryDy=0;exitX=0.35;exitY=0.8;exitDx=0;exitDy=0;exitPerimeter=0;strokeWidth=2;" edge="1" parent="1" source="PRDcVe-QQQWy-9RgeYIL-17" target="PRDcVe-QQQWy-9RgeYIL-4">
          <mxGeometry width="50" height="50" relative="1" as="geometry">
            <mxPoint x="470" y="30" as="sourcePoint" />
            <mxPoint x="520" y="-20" as="targetPoint" />
            <Array as="points">
              <mxPoint x="400" y="210" />
            </Array>
          </mxGeometry>
        </mxCell>
        <mxCell id="PRDcVe-QQQWy-9RgeYIL-19" value="" style="endArrow=classic;html=1;rounded=0;entryX=0;entryY=0.25;entryDx=0;entryDy=0;exitX=1;exitY=0.5;exitDx=0;exitDy=0;strokeWidth=2;" edge="1" parent="1" source="PRDcVe-QQQWy-9RgeYIL-13" target="PRDcVe-QQQWy-9RgeYIL-3">
          <mxGeometry width="50" height="50" relative="1" as="geometry">
            <mxPoint x="470" y="30" as="sourcePoint" />
            <mxPoint x="520" y="-20" as="targetPoint" />
            <Array as="points">
              <mxPoint x="300" y="171" />
              <mxPoint x="300" y="130" />
            </Array>
          </mxGeometry>
        </mxCell>
        <mxCell id="PRDcVe-QQQWy-9RgeYIL-20" value="" style="endArrow=classic;html=1;rounded=0;entryX=0;entryY=0.5;entryDx=0;entryDy=0;exitX=1;exitY=0.5;exitDx=0;exitDy=0;strokeWidth=2;" edge="1" parent="1" source="PRDcVe-QQQWy-9RgeYIL-13" target="PRDcVe-QQQWy-9RgeYIL-5">
          <mxGeometry width="50" height="50" relative="1" as="geometry">
            <mxPoint x="470" y="30" as="sourcePoint" />
            <mxPoint x="520" y="-20" as="targetPoint" />
            <Array as="points">
              <mxPoint x="300" y="171" />
              <mxPoint x="300" y="190" />
            </Array>
          </mxGeometry>
        </mxCell>
        <mxCell id="PRDcVe-QQQWy-9RgeYIL-21" value="&lt;font style=&quot;font-size: 26px;&quot;&gt;-&lt;/font&gt;" style="text;html=1;strokeColor=none;fillColor=none;align=center;verticalAlign=middle;whiteSpace=wrap;rounded=0;strokeWidth=2;" vertex="1" parent="1">
          <mxGeometry x="190" y="180" width="60" height="30" as="geometry" />
        </mxCell>
        <mxCell id="PRDcVe-QQQWy-9RgeYIL-22" value="" style="verticalLabelPosition=bottom;shadow=0;dashed=0;align=center;html=1;verticalAlign=top;shape=mxgraph.electrical.iec_logic_gates.and;strokeWidth=2;fontSize=12;fillColor=#ffe6cc;strokeColor=#d79b00;" vertex="1" parent="1">
          <mxGeometry x="720" y="110" width="50" height="50" as="geometry" />
        </mxCell>
        <mxCell id="PRDcVe-QQQWy-9RgeYIL-24" value="" style="endArrow=classic;html=1;rounded=0;entryX=0;entryY=0.5;entryDx=0;entryDy=0;strokeWidth=2;" edge="1" parent="1" target="PRDcVe-QQQWy-9RgeYIL-13">
          <mxGeometry width="50" height="50" relative="1" as="geometry">
            <mxPoint x="90" y="171" as="sourcePoint" />
            <mxPoint x="570" y="260" as="targetPoint" />
          </mxGeometry>
        </mxCell>
        <mxCell id="PRDcVe-QQQWy-9RgeYIL-25" value="" style="endArrow=classic;html=1;rounded=0;entryX=0.5;entryY=1;entryDx=0;entryDy=0;strokeWidth=2;" edge="1" parent="1" target="PRDcVe-QQQWy-9RgeYIL-13">
          <mxGeometry width="50" height="50" relative="1" as="geometry">
            <mxPoint x="234" y="230" as="sourcePoint" />
            <mxPoint x="310" y="220" as="targetPoint" />
          </mxGeometry>
        </mxCell>
        <mxCell id="PRDcVe-QQQWy-9RgeYIL-26" value="" style="verticalLabelPosition=bottom;shadow=0;dashed=0;align=center;html=1;verticalAlign=top;shape=mxgraph.electrical.iec_logic_gates.and;strokeWidth=2;fontSize=12;fillColor=#ffe6cc;strokeColor=#d79b00;" vertex="1" parent="1">
          <mxGeometry x="720" y="180" width="50" height="50" as="geometry" />
        </mxCell>
        <mxCell id="PRDcVe-QQQWy-9RgeYIL-28" value="&lt;font&gt;&lt;span style=&quot;font-size: 15px;&quot;&gt;T&lt;sub style=&quot;font-size: 12px;&quot;&gt;2&lt;/sub&gt;&lt;/span&gt;&lt;sub&gt;&lt;font style=&quot;font-size: 12px;&quot;&gt;&amp;nbsp;&lt;/font&gt;&lt;/sub&gt;&lt;span style=&quot;font-size: 15px;&quot;&gt;&amp;amp; T&lt;sub style=&quot;font-size: 12px;&quot;&gt;3&lt;/sub&gt;&lt;/span&gt;&lt;/font&gt;&lt;font style=&quot;vertical-align: sub; font-size: 12px;&quot;&gt;&amp;nbsp;&lt;/font&gt;" style="text;html=1;strokeColor=none;fillColor=none;align=center;verticalAlign=middle;whiteSpace=wrap;rounded=0;strokeWidth=2;" vertex="1" parent="1">
          <mxGeometry x="840" y="190" width="60" height="30" as="geometry" />
        </mxCell>
        <mxCell id="PRDcVe-QQQWy-9RgeYIL-29" value="" style="endArrow=classic;html=1;rounded=0;entryX=0;entryY=0.5;entryDx=0;entryDy=0;exitX=1;exitY=0.5;exitDx=0;exitDy=0;exitPerimeter=0;strokeWidth=2;" edge="1" parent="1" source="PRDcVe-QQQWy-9RgeYIL-22" target="PRDcVe-QQQWy-9RgeYIL-6">
          <mxGeometry width="50" height="50" relative="1" as="geometry">
            <mxPoint x="520" y="310" as="sourcePoint" />
            <mxPoint x="570" y="260" as="targetPoint" />
          </mxGeometry>
        </mxCell>
        <mxCell id="PRDcVe-QQQWy-9RgeYIL-31" value="" style="endArrow=classic;html=1;rounded=0;exitX=1;exitY=0.25;exitDx=0;exitDy=0;exitPerimeter=0;strokeWidth=2;" edge="1" parent="1" source="PRDcVe-QQQWy-9RgeYIL-1">
          <mxGeometry width="50" height="50" relative="1" as="geometry">
            <mxPoint x="534" y="170" as="sourcePoint" />
            <mxPoint x="720" y="120" as="targetPoint" />
            <Array as="points">
              <mxPoint x="680" y="150" />
              <mxPoint x="680" y="120" />
            </Array>
          </mxGeometry>
        </mxCell>
        <mxCell id="PRDcVe-QQQWy-9RgeYIL-32" value="" style="endArrow=classic;html=1;rounded=0;strokeWidth=2;fillColor=#ffe6cc;strokeColor=#d79b00;" edge="1" parent="1">
          <mxGeometry width="50" height="50" relative="1" as="geometry">
            <mxPoint x="600" y="280" as="sourcePoint" />
            <mxPoint x="720" y="150" as="targetPoint" />
            <Array as="points">
              <mxPoint x="700" y="280" />
              <mxPoint x="700" y="150" />
            </Array>
          </mxGeometry>
        </mxCell>
        <mxCell id="PRDcVe-QQQWy-9RgeYIL-33" value="" style="endArrow=classic;html=1;rounded=0;strokeWidth=2;fillColor=#ffe6cc;strokeColor=#d79b00;" edge="1" parent="1">
          <mxGeometry width="50" height="50" relative="1" as="geometry">
            <mxPoint x="700" y="220" as="sourcePoint" />
            <mxPoint x="720" y="220" as="targetPoint" />
          </mxGeometry>
        </mxCell>
        <mxCell id="PRDcVe-QQQWy-9RgeYIL-34" value="" style="shape=waypoint;sketch=0;fillStyle=solid;size=6;pointerEvents=1;points=[];fillColor=#ffe6cc;resizable=0;rotatable=0;perimeter=centerPerimeter;snapToPoint=1;strokeWidth=2;strokeColor=#d79b00;" vertex="1" parent="1">
          <mxGeometry x="690" y="210" width="20" height="20" as="geometry" />
        </mxCell>
        <mxCell id="PRDcVe-QQQWy-9RgeYIL-35" value="" style="endArrow=classic;html=1;rounded=0;entryX=0;entryY=0.5;entryDx=0;entryDy=0;exitX=1;exitY=0.5;exitDx=0;exitDy=0;exitPerimeter=0;strokeWidth=2;" edge="1" parent="1">
          <mxGeometry width="50" height="50" relative="1" as="geometry">
            <mxPoint x="770" y="204.75" as="sourcePoint" />
            <mxPoint x="840" y="204.75" as="targetPoint" />
            <Array as="points">
              <mxPoint x="790" y="204.75" />
            </Array>
          </mxGeometry>
        </mxCell>
        <mxCell id="PRDcVe-QQQWy-9RgeYIL-36" value="" style="pointerEvents=1;verticalLabelPosition=bottom;shadow=0;dashed=0;align=center;html=1;verticalAlign=top;shape=mxgraph.electrical.signal_sources.source;aspect=fixed;points=[[0.5,0,0],[1,0.5,0],[0.5,1,0],[0,0.5,0]];elSignalType=pulse;strokeWidth=2;fillColor=#ffe6cc;strokeColor=#d79b00;" vertex="1" parent="1">
          <mxGeometry x="560" y="260" width="40" height="40" as="geometry" />
        </mxCell>
        <mxCell id="PRDcVe-QQQWy-9RgeYIL-37" value="I&lt;sub&gt;SET&lt;/sub&gt;" style="text;html=1;strokeColor=none;fillColor=none;align=center;verticalAlign=middle;whiteSpace=wrap;rounded=0;" vertex="1" parent="1">
          <mxGeometry x="40" y="155" width="60" height="30" as="geometry" />
        </mxCell>
        <mxCell id="PRDcVe-QQQWy-9RgeYIL-38" value="I&lt;sub&gt;ACT&lt;/sub&gt;" style="text;html=1;strokeColor=none;fillColor=none;align=center;verticalAlign=middle;whiteSpace=wrap;rounded=0;" vertex="1" parent="1">
          <mxGeometry x="203.5" y="220" width="60" height="30" as="geometry" />
        </mxCell>
      </root>
    </mxGraphModel>
  </diagram>
</mxfile>
